<svg xmlns="http://www.w3.org/2000/svg" viewBox="0 0 509 296" fill="none" role="img" aria-label="הופכים כאב לשליחות">
  <svg x="144.658" y="0.000" width="62.251" height="78.174" viewBox="0 0 62.2496 78.1742" preserveAspectRatio="none"><path id="Vector" d="M62.2496 78.1742H0.727476V40.3108C0.727476 33.1103 3.05135 27.4874 7.6991 23.4523L9.60872 21.9353C10.2251 21.369 10.5282 20.7723 10.5282 20.1554C10.5282 19.2351 9.96236 18.7699 8.82063 18.7699H0V0H55.7327C60.0773 3.37777 62.2496 11.0839 62.2496 23.1185V78.1742ZM56.9148 51.9611C56.9148 39.7546 56.9148 33.6058 56.9148 33.5148C56.4298 28.0234 55.5306 24.3624 54.2171 22.5117C52.459 20.0138 49.0136 18.7598 43.891 18.7598H24.9362C20.0662 18.7598 16.2469 20.1655 13.4886 22.9769C9.71988 26.7997 7.83046 32.8574 7.83046 41.1502V58.6054H52.0448C55.2982 58.6155 56.9148 56.4007 56.9148 51.9611Z" fill="#C08B2F"/></svg>
  <svg x="217.903" y="0.000" width="30.744" height="45.318" viewBox="0 0 30.7358 45.3066" preserveAspectRatio="none"><path id="Vector" d="M30.7358 16.2618C30.7358 19.4677 30.362 22.2083 29.6143 24.4939C27.7249 30.9966 24.3098 36.1543 19.3488 39.9669L12.5692 45.3066L10.0735 42.3435C14.4181 39.0972 17.2674 36.7206 18.6314 35.234C21.4807 31.9877 22.9054 29.1358 22.9054 26.6783C22.9054 24.3018 22.1375 22.4005 20.6017 20.9442C19.0659 19.498 17.1563 18.7699 14.8728 18.7699H0V0H26.4518C29.3011 2.98336 30.7257 8.32307 30.7257 16.009V16.2618H30.7358Z" fill="#C08B2F"/></svg>
  <svg x="258.419" y="0.000" width="59.807" height="78.174" viewBox="0 0 59.8197 78.1843" preserveAspectRatio="none"><path id="Vector" d="M59.8146 33.5249V41.4333C59.8146 50.434 58.0565 59.829 54.5505 69.6185L51.4587 78.1843H0.262694V58.6155H38.5562C49.7411 58.6155 55.3386 52.2746 55.3386 39.5826C55.3386 28.6099 52.3782 22.0162 46.4573 19.8217C44.3962 19.1239 41.9207 18.7699 39.021 18.7699H0V0H52.6409C57.5513 6.63419 59.9459 17.8092 59.8146 33.5249Z" fill="#C08B2F"/></svg>
  <svg x="330.799" y="0.000" width="62.912" height="78.174" viewBox="0 0 62.9064 78.1843" preserveAspectRatio="none"><path id="Vector" d="M62.9064 33.5249V41.4333C62.9064 50.434 61.1483 59.829 57.6423 69.6185L54.5505 78.1843H1.77828V58.6155H41.7187C52.8632 58.6155 58.4304 52.2746 58.4304 39.5826C58.4304 28.6099 55.47 22.0162 49.5491 19.8217C47.4879 19.1239 45.0327 18.7699 42.1834 18.7699H22.3092C20.4703 18.7699 18.4395 19.1744 16.2267 19.9835C14.014 20.7925 12.2357 22.0566 10.8919 23.7759C9.54811 25.485 8.88126 27.0222 8.88126 28.3874C8.88126 30.1471 9.8007 31.0168 11.6497 31.0168H26.3204V48.5428H1.51557C0.505191 42.5761 0 39.8759 0 40.4422C0 32.6248 2.47542 26.739 7.43639 22.7949L9.60874 21.0858C10.2251 20.6914 10.5282 20.2262 10.5282 19.7003C10.5282 19.0834 9.98258 18.78 8.88126 18.78H3.09177V0H55.7933C60.532 6.63419 62.9064 17.8092 62.9064 33.5249Z" fill="#C08B2F"/></svg>
  <svg x="404.197" y="0.000" width="29.267" height="78.647" viewBox="0 0 29.2809 78.6394" preserveAspectRatio="none"><path id="Vector" d="M29.2809 42.9402C29.2809 49.0485 28.9778 60.9415 28.3614 78.6394H24.0168L23.3601 44.8515C23.3601 33.5249 22.7033 26.4761 21.3898 23.7051C19.9449 20.4082 16.3682 18.7699 10.6595 18.7699H0V0H27.1086C28.5534 2.98336 29.2809 6.65441 29.2809 11.003V42.9402Z" fill="#C08B2F"/></svg>
  <svg x="445.782" y="0.000" width="63.218" height="79.358" viewBox="0 0 63.2398 79.3675" preserveAspectRatio="none"><path id="Vector" d="M63.2398 15.4123C63.2398 17.2125 62.5628 19.4272 61.1988 22.0668L60.2794 23.8467C58.8345 26.7896 58.1071 30.4809 58.1071 34.9104C58.1071 36.9735 58.9861 44.0425 60.7341 56.1175L62.4416 67.9701L55.3386 79.3675H52.5095L51.7821 42.6772C51.5598 35.6486 52.7419 29.8134 55.3386 25.1614L56.3894 23.25C56.9148 22.2387 57.1775 21.3588 57.1775 20.6105C57.1775 19.3868 56.1065 18.7699 53.9544 18.7699H0V0H63.2297V15.4123H63.2398ZM13.62 37.6713C10.9424 41.7165 9.60874 45.7516 9.60874 49.7867C9.60874 54.2264 10.7505 60.2841 13.0339 67.96L5.46617 79.3574H2.63711L2.3744 55.3793C2.24305 48.6642 3.97082 43.4357 7.56778 39.704L11.1243 35.952L13.62 37.6713Z" fill="#C08B2F"/></svg>
  <svg x="0.662" y="106.234" width="128.930" height="78.174" viewBox="0 0 128.955 78.1742" preserveAspectRatio="none"><path id="Vector" d="M128.955 78.1742H0V58.6155H107.232C109.121 58.6155 110.586 57.8873 111.637 56.4411C115.012 51.7891 116.699 46.409 116.699 40.3007C116.699 30.1168 116.153 24.2714 115.052 22.7848C112.991 20.1048 110.576 18.7699 107.818 18.7699H0.727475V0H119.478C122.064 3.95422 123.358 10.3659 123.358 19.2351V30.3696C123.358 33.8384 123.115 37.0442 122.63 39.9871C121.579 45.61 119.558 50.7879 116.578 55.531C116.052 56.3704 115.901 57.1086 116.113 57.766C116.416 58.3323 116.861 58.6256 117.427 58.6256H128.945V78.1742H128.955Z" fill="#C08B2F"/></svg>
  <svg x="136.768" y="104.518" width="72.838" height="81.933" viewBox="0 0 72.8485 81.9261" preserveAspectRatio="none"><path id="Vector" d="M72.8485 69.6792L60.7441 81.9261H60.4814L22.9054 38.7837C21.9859 37.6409 20.9957 37.0746 19.9449 37.0746C18.9346 37.0746 17.813 37.5398 16.5905 38.4601C15.0143 39.5118 13.6705 41.1299 12.5792 43.3042C11.4779 45.4786 10.9323 47.5113 10.9323 49.3923C10.9323 56.8153 14.4687 60.5268 21.5312 60.5268H26.0072V79.8934H4.28402V55.1972C4.28402 47.2989 6.77967 41.0187 11.7811 36.3667L16.1257 32.281L0 13.3088V12.7122L12.3671 0H12.5692L43.6889 36.6195C44.8306 37.9342 46.2351 38.6017 47.9022 38.6017C49.9634 38.6017 51.8225 37.8533 53.4997 36.3667C58.5415 31.6742 61.0675 27.7807 61.0675 24.7063C61.0675 21.7229 59.4913 20.2262 56.3288 20.2262H44.3558V1.71922H68.4331C69.6153 4.7936 70.2114 8.46466 70.2114 12.7223V14.6336C70.2114 19.5486 68.4332 24.4029 64.8766 29.1864C62.0273 33.09 58.885 36.6701 55.4699 39.9265L50.5393 44.538L72.8485 69.6792Z" fill="#C08B2F"/></svg>
  <svg x="218.565" y="106.234" width="59.807" height="78.174" viewBox="0 0 59.8197 78.1742" preserveAspectRatio="none"><path id="Vector" d="M59.8146 33.5148V41.4232C59.8146 50.4239 58.0565 59.8189 54.5505 69.6084L51.4587 78.1742H0.262694V58.6155H38.5562C49.7411 58.6155 55.3386 52.2746 55.3386 39.5826C55.3386 28.6099 52.3782 22.0162 46.4573 19.8217C44.3962 19.1137 41.9207 18.7699 39.0209 18.7699H0V0H52.6409C57.5513 6.62407 59.9459 17.799 59.8146 33.5148Z" fill="#C08B2F"/></svg>
  <svg x="0.000" y="216.642" width="121.447" height="78.647" viewBox="0 0 121.428 78.6495" preserveAspectRatio="none"><path id="Vector" d="M121.428 51.8397C121.428 57.948 121.125 66.8779 120.508 78.6495H116.497L115.184 44.9931C115.184 34.3643 114.214 27.3458 112.284 23.9174C110.354 20.4891 106.585 18.78 100.967 18.78H32.5747C29.2809 18.78 26.28 20.2767 23.5621 23.2601C20.0965 27.1233 18.3687 32.5743 18.3687 39.5927C18.3687 43.102 19.4903 47.3899 21.7232 52.4364L25.7344 61.3258V78.1843H0V58.6256H14.2161L12.7005 51.3846C11.9124 47.4304 11.5184 43.5874 11.5184 39.8557C11.5184 33.2316 13.5593 27.8514 17.6413 23.7152L20.1369 21.2071C20.6623 20.7217 20.8139 20.2161 20.6017 19.6902C20.5108 19.0733 20.1672 18.7699 19.5509 18.7699H9.01261V0H114.911C119.255 2.67997 121.428 9.80969 121.428 21.4094V51.8397Z" fill="#C08B2F"/></svg>
  <svg x="132.951" y="216.642" width="29.267" height="78.647" viewBox="0 0 29.2809 78.6293" preserveAspectRatio="none"><path id="Vector" d="M29.2809 42.9301C29.2809 49.0384 28.9777 60.9314 28.3614 78.6293H24.0168L23.36 44.8414C23.36 33.5148 22.7033 26.466 21.3898 23.7051C19.9449 20.4082 16.3682 18.7699 10.6595 18.7699H0V0H27.1085C28.5534 2.98336 29.2809 6.65442 29.2809 11.003V42.9301Z" fill="#C08B2F"/></svg>
  <svg x="176.419" y="216.672" width="63.370" height="79.358" viewBox="0 0 63.3913 79.3574" preserveAspectRatio="none"><path id="Vector" d="M63.3913 15.382C63.3913 17.1821 62.7144 19.3969 61.3504 22.0364L60.4915 23.8163C58.9962 26.7592 58.2586 30.4505 58.2586 34.88C58.2586 36.9431 59.1376 44.0122 60.8957 56.0872L62.6032 67.9397L55.5003 79.3372H52.6712L51.9437 42.657C51.7214 35.6284 52.9137 29.7932 55.5003 25.1411L56.6218 23.2298C57.1068 22.2185 57.3493 21.3386 57.3493 20.6004C57.3493 19.3767 56.2783 18.7598 54.1261 18.7598H17.9848C15.085 18.7598 12.943 19.8115 11.5386 21.9252C9.34603 24.8681 8.2447 28.3166 8.2447 32.2607C8.2447 39.7647 8.90146 47.936 10.215 56.7648L11.9225 67.9599L4.48608 79.3574H1.8591L0.868929 43.9919C0.697164 37.5802 1.43473 32.5945 3.10186 29.0448C3.27363 28.5189 4.30422 26.9413 6.19363 24.3017C7.76982 22.1477 8.55793 20.7723 8.55793 20.1554C8.55793 19.2351 7.88097 18.7699 6.51696 18.7699H0V0H63.361V15.382H63.3913Z" fill="#C08B2F"/></svg>
  <svg x="249.563" y="216.642" width="30.744" height="45.318" viewBox="0 0 30.7257 45.3167" preserveAspectRatio="none"><path id="Vector" d="M30.7257 16.272C30.7257 19.4778 30.3519 22.2185 29.6042 24.504C27.7148 31.0067 24.2997 36.1644 19.3387 39.977L12.559 45.3167L10.0634 42.3536C14.408 39.1073 17.2573 36.7307 18.6213 35.2441C21.4706 31.9978 22.8953 29.1358 22.8953 26.6783C22.8953 24.3119 22.1274 22.4005 20.5916 20.9442C19.0558 19.498 17.1462 18.7699 14.8627 18.7699H0V0H26.4518C29.3011 2.98336 30.7257 8.32306 30.7257 16.009V16.272Z" fill="#C08B2F"/></svg>
  <svg x="288.807" y="176.594" width="61.691" height="118.814" viewBox="0 0 61.6535 118.809" preserveAspectRatio="none"><path id="Vector" d="M61.6535 64.6631C61.6535 69.9725 60.4209 74.5436 57.9656 78.3663C55.864 81.6632 52.3984 85.0207 47.5688 88.4389L31.9079 99.5735C29.7558 101.151 28.6848 102.87 28.6848 104.711C28.6848 106.683 29.9073 108.443 32.3726 109.98L26.1891 118.809L24.9362 118.343C21.0261 116.978 19.076 114.126 19.076 109.778C19.076 108.372 19.3589 107.138 19.9348 106.086C21.602 102.921 24.2997 100.008 28.028 97.3284L44.3457 85.4758C49.7007 81.5722 52.3782 76.9808 52.3782 71.7119C52.3782 63.1057 47.6799 58.8076 38.2935 58.8076H1.70755V43.9211C1.70755 36.1543 3.09178 29.4796 5.85012 23.8972L9.01262 17.708C9.40667 16.7473 9.60874 15.8674 9.60874 15.0786C9.60874 12.4897 8.20433 11.1952 5.39547 11.1952H0V0H12.8319C15.0244 1.66866 16.1257 4.2576 16.1257 7.76685V8.36351C16.1257 10.9525 15.378 13.8044 13.8927 16.9293L9.02273 27.3357C7.84059 29.7021 7.24445 32.1192 7.24445 34.5767C7.24445 38.2275 8.76001 40.0478 11.7811 40.0478H58.6931C60.6634 43.7796 61.6535 47.8855 61.6535 52.3656V64.6631Z" fill="#C08B2F"/></svg>
  <svg x="362.408" y="216.642" width="77.419" height="78.174" viewBox="0 0 77.4559 78.1843" preserveAspectRatio="none"><path id="Vector" d="M77.4559 16.4742C77.4559 18.7092 76.8597 20.7824 75.6776 22.6634C74.4954 24.5546 73.283 26.3547 72.0604 28.0638L68.1806 34.1216C63.1388 42.0704 59.1477 52.9825 56.2075 66.8576L53.7725 78.1843H5.93094L2.76844 49.7969C2.19252 43.7796 1.90961 39.8051 1.90961 37.8735C1.90961 30.5011 3.59695 25.2726 6.97163 22.1982C7.80014 21.4499 8.22449 20.7723 8.22449 20.1554C8.22449 19.3666 7.49702 18.9721 6.05218 18.9721H0V0H22.8953V18.9721H19.47C16.9239 18.9721 14.8627 19.5688 13.2865 20.752C11.3163 22.3297 10.0432 24.4231 9.46727 27.0121C9.03281 28.8526 8.81053 31.9978 8.81053 36.4273C8.81053 42.1311 9.42687 47.7742 10.6494 53.3567L11.9629 58.6256H13.8726C15.4487 58.6256 17.1866 56.8052 19.0659 53.1544L34.262 24.3119C34.9592 22.9061 35.3128 21.7836 35.3128 20.9543C35.3128 19.6396 34.1711 18.9823 31.8876 18.9823H27.6137V0.0101075H49.6603V18.9823H44.9216C42.9513 18.9823 41.2842 20.3172 39.9202 22.9972L23.6631 54.6107C23.1377 55.531 22.875 56.2996 22.875 56.9164C22.875 58.0592 23.7035 58.6256 25.3707 58.6256H49.1955L53.7321 49.2103C58.6931 38.8444 62.9468 31.5427 66.4932 27.275L68.8575 24.3119C69.8174 23.3006 70.3023 22.3398 70.3023 21.4094C70.3023 19.6497 69.0293 18.7699 66.4831 18.7699H54.9648V0H75.8898C76.9001 1.89115 77.4053 4.57111 77.4053 8.0399V16.4742H77.4559Z" fill="#C08B2F"/></svg>
  <svg x="447.360" y="176.594" width="61.640" height="118.814" viewBox="0 0 61.6535 118.809" preserveAspectRatio="none"><path id="Vector" d="M61.6535 64.6631C61.6535 69.9725 60.4208 74.5436 57.9656 78.3663C55.864 81.6632 52.3984 85.0207 47.5688 88.4389L31.9078 99.5735C29.7557 101.151 28.6848 102.87 28.6848 104.711C28.6848 106.683 29.9073 108.443 32.3726 109.98L26.1891 118.809L24.9362 118.343C21.026 116.978 19.076 114.126 19.076 109.778C19.076 108.372 19.3589 107.138 19.9348 106.086C21.602 102.921 24.2997 100.008 28.028 97.3284L44.3457 85.4758C49.7007 81.5722 52.3782 76.9808 52.3782 71.7119C52.3782 63.1057 47.6799 58.8076 38.2935 58.8076H1.70755V43.9211C1.70755 36.1543 3.09178 29.4796 5.85012 23.8972L9.01262 17.708C9.40667 16.7473 9.60874 15.8674 9.60874 15.0786C9.60874 12.4897 8.2043 11.1952 5.39544 11.1952H0V0H12.8319C15.0244 1.66866 16.1257 4.2576 16.1257 7.76685V8.36351C16.1257 10.9525 15.378 13.8044 13.8927 16.9293L9.0227 27.3357C7.84056 29.7021 7.24445 32.1192 7.24445 34.5767C7.24445 38.2275 8.76001 40.0478 11.7811 40.0478H58.6931C60.6633 43.7796 61.6535 47.8855 61.6535 52.3656V64.6631Z" fill="#C08B2F"/></svg>
</svg>
